<svg width="152" height="40" viewBox="0 0 152 40" fill="none" xmlns="http://www.w3.org/2000/svg">
<path d="M0.275391 31.08V1.26H4.51739V27.384H18.1674L17.8314 31.08H0.275391Z" fill="#1B1800"/>
<path d="M39.7242 10.08V31.08H35.6082L35.7762 26.754C34.9922 28.21 33.9702 29.358 32.7102 30.198C31.4502 31.038 30.0082 31.458 28.3842 31.458C26.5642 31.458 25.0242 31.038 23.7642 30.198C22.5322 29.33 21.5942 28.154 20.9502 26.67C20.3062 25.186 19.9842 23.478 19.9842 21.546C19.9842 19.222 20.4182 17.164 21.2862 15.372C22.1822 13.58 23.4002 12.194 24.9402 11.214C26.5082 10.206 28.3002 9.702 30.3162 9.702C31.6602 9.702 32.8502 10.01 33.8862 10.626C34.9502 11.214 35.7342 11.998 36.2382 12.978L36.7422 10.08H39.7242ZM30.4842 13.272C28.5522 13.272 26.9982 14.014 25.8222 15.498C24.6742 16.954 24.1002 18.886 24.1002 21.294C24.1002 23.366 24.5482 24.976 25.4442 26.124C26.3402 27.272 27.5442 27.846 29.0562 27.846C30.3162 27.846 31.4502 27.482 32.4582 26.754C33.4662 26.026 34.2642 25.018 34.8522 23.73C35.4402 22.414 35.7342 20.916 35.7342 19.236C35.7342 17.388 35.2582 15.932 34.3062 14.868C33.3822 13.804 32.1082 13.272 30.4842 13.272Z" fill="#1B1800"/>
<path d="M58.7036 13.902C58.1716 13.734 57.5276 13.65 56.7716 13.65C55.2036 13.65 53.9156 14.252 52.9076 15.456C51.9276 16.632 51.1996 18.508 50.7236 21.084C50.2756 23.632 50.0516 26.964 50.0516 31.08H46.0616V17.556L46.0196 10.038H50.0516L49.7996 16.758C50.4996 14.21 51.5076 12.404 52.8236 11.34C54.1676 10.248 55.5956 9.702 57.1076 9.702C57.5556 9.702 57.9616 9.73 58.3256 9.786C58.7176 9.814 59.0536 9.884 59.3336 9.996L58.7036 13.902Z" fill="#1B1800"/>
<path d="M71.4414 31.458C68.1374 31.458 65.5334 30.52 63.6294 28.644C61.7254 26.768 60.7734 24.178 60.7734 20.874C60.7734 18.69 61.2074 16.758 62.0754 15.078C62.9714 13.398 64.1894 12.082 65.7294 11.13C67.2694 10.178 69.0194 9.702 70.9794 9.702C74.0034 9.702 76.2994 10.752 77.8674 12.852C79.4354 14.924 79.9814 17.934 79.5054 21.882H64.8474C64.9314 23.786 65.5614 25.27 66.7374 26.334C67.9414 27.37 69.6074 27.888 71.7354 27.888C72.7714 27.888 73.7654 27.664 74.7174 27.216C75.6974 26.74 76.5374 26.04 77.2374 25.116L79.6734 27.468C78.6934 28.756 77.5314 29.75 76.1874 30.45C74.8434 31.122 73.2614 31.458 71.4414 31.458ZM71.0214 12.81C69.3134 12.81 67.9274 13.384 66.8634 14.532C65.7994 15.68 65.1554 17.122 64.9314 18.858H76.0194C76.1034 16.73 75.6694 15.19 74.7174 14.238C73.7934 13.286 72.5614 12.81 71.0214 12.81Z" fill="#1B1800"/>
<path d="M103.574 0V31.08H99.4581L99.6261 26.754C98.8421 28.21 97.8201 29.358 96.5601 30.198C95.3001 31.038 93.8581 31.458 92.2341 31.458C90.4141 31.458 88.8741 31.038 87.6141 30.198C86.3821 29.33 85.4441 28.154 84.8001 26.67C84.1561 25.186 83.8341 23.478 83.8341 21.546C83.8341 19.222 84.2681 17.164 85.1361 15.372C86.0321 13.58 87.2501 12.194 88.7901 11.214C90.3581 10.206 92.1501 9.702 94.1661 9.702C95.3141 9.702 96.3641 9.926 97.3161 10.374C98.2681 10.822 99.0381 11.424 99.6261 12.18L99.5421 10.038V0H103.574ZM94.3341 13.272C92.4021 13.272 90.8481 14.014 89.6721 15.498C88.5241 16.954 87.9501 18.886 87.9501 21.294C87.9501 23.366 88.3981 24.976 89.2941 26.124C90.1901 27.272 91.3941 27.846 92.9061 27.846C94.1661 27.846 95.3001 27.482 96.3081 26.754C97.3161 26.026 98.1141 25.018 98.7021 23.73C99.2901 22.414 99.5841 20.916 99.5841 19.236C99.5841 17.388 99.1081 15.932 98.1561 14.868C97.2321 13.804 95.9581 13.272 94.3341 13.272Z" fill="#1B1800"/>
<path d="M119.613 31.458C116.309 31.458 113.705 30.52 111.801 28.644C109.897 26.768 108.945 24.178 108.945 20.874C108.945 18.69 109.379 16.758 110.247 15.078C111.143 13.398 112.361 12.082 113.901 11.13C115.441 10.178 117.191 9.702 119.151 9.702C122.175 9.702 124.471 10.752 126.039 12.852C127.607 14.924 128.153 17.934 127.677 21.882H113.019C113.103 23.786 113.733 25.27 114.909 26.334C116.113 27.37 117.779 27.888 119.907 27.888C120.943 27.888 121.937 27.664 122.889 27.216C123.869 26.74 124.709 26.04 125.409 25.116L127.845 27.468C126.865 28.756 125.703 29.75 124.359 30.45C123.015 31.122 121.433 31.458 119.613 31.458ZM119.193 12.81C117.485 12.81 116.099 13.384 115.035 14.532C113.971 15.68 113.327 17.122 113.103 18.858H124.191C124.275 16.73 123.841 15.19 122.889 14.238C121.965 13.286 120.733 12.81 119.193 12.81Z" fill="#1B1800"/>
<path d="M132.93 31.08V10.038H136.962L136.71 16.254C137.494 14.154 138.6 12.544 140.028 11.424C141.456 10.276 143.122 9.702 145.026 9.702C147.266 9.702 148.974 10.486 150.15 12.054C151.326 13.594 151.9 15.82 151.872 18.732L151.788 31.08H147.798L147.882 19.11C147.91 15.33 146.622 13.44 144.018 13.44C142.646 13.44 141.428 13.972 140.364 15.036C139.328 16.1 138.502 17.92 137.886 20.496C137.27 23.072 136.948 26.6 136.92 31.08H132.93Z" fill="#1B1800"/>
<rect y="35.08" width="50" height="4" fill="#433E0E"/>
</svg>
