<svg width="40" height="40" viewBox="0 0 40 40" fill="none" xmlns="http://www.w3.org/2000/svg">
<path d="M3.33301 31.6666L6.66634 35H33.333L36.6663 31.6666H3.33301Z" fill="black"/>
<path d="M5 30H33.2833C33.7667 24.5667 29.4833 20 24.15 20C20.2333 20 16.9 22.4667 15.5833 25.9167C14.9 25.5333 14.1333 25.2833 13.3333 25.1333V15H20V11.25H35V8.75H20V5H5V7.5H6.66667V8.75H5V11.25H6.66667V12.5H5V15H6.66667V27.3167C5.93333 28.0833 5.36667 28.9833 5 30ZM13.3333 12.5V11.25H16.6667V12.5H13.3333ZM16.6667 8.75H13.3333V7.5H16.6667V8.75ZM9.16667 7.5H10.8333V8.75H9.16667V7.5ZM9.16667 11.25H10.8333V12.5H9.16667V11.25ZM10.8333 15V25.1C10.25 25.2 9.7 25.3833 9.16667 25.6V15H10.8333Z" fill="black"/>
</svg>
